<?xml version="1.0" ?><!DOCTYPE svg  PUBLIC '-//W3C//DTD SVG 1.1//EN'  'http://www.w3.org/Graphics/SVG/1.1/DTD/svg11.dtd'><svg enable-background="new 0 0 64 64" height="64px" id="Layer_1" version="1.1" viewBox="0 0 64 64" width="64px" xml:space="preserve" xmlns="http://www.w3.org/2000/svg" xmlns:xlink="http://www.w3.org/1999/xlink"><g><path d="M45.058,4.776c-0.124,0-0.248,0.009-0.37,0.014c-0.023-0.001-0.036-0.005-0.061-0.006   c-1.563-0.046-2.073-0.68-2.073-0.68s-0.006,0.007-0.009,0.01c-2.541-2.556-6.035-4.139-9.903-4.139   c-5.572,0-10.379,3.283-12.662,8.032c-0.015,0.024-0.026,0.041-0.04,0.067c-0.506,0.941-1.23,0.983-1.579,0.939   c-0.067-0.01-0.127-0.029-0.194-0.037l-0.007-0.002v0.001c-0.424-0.059-0.856-0.09-1.297-0.09c-5.351,0-9.696,4.403-9.696,9.823   c0,4.624,3.162,8.5,7.406,9.54l-0.003,0.009c0,0,0.04,0.005,0.094,0.015c0.058,0.012,0.112,0.034,0.171,0.044   c0.362,0.112,1.017,0.444,1.384,1.448c0,0.001,0,0.001,0,0.003l6.86,18.769c0,0,0.579,1.758,2.519,1.758H38.21   c1.716,0,2.422-1.091,2.683-1.679l0.134-0.364l0.003-0.003l6.908-18.896c0,0,0.391-1.032,1.604-1.62   c0.03-0.015,0.043-0.027,0.066-0.039c4.247-1.807,7.227-6.042,7.227-10.986C56.834,10.123,51.569,4.776,45.058,4.776z" fill="#241F20"/><path d="M26.886,57.198c-0.746,0.082-1.417,0.397-1.92,0.87c-0.377,0.24-0.758,0.606-1.152,1.095   c-1.24,1.497-3.167,4.217-5.908,3.301c-0.012,0-0.015,0.01-0.027,0.006c-0.767-0.157-0.225,0.325-0.052,0.468   c1.613,1.173,3.471,1.725,5.585-0.049c0.01-0.006,0.017-0.006,0.029-0.013c0.636-0.445,1.076-0.206,1.297-0.003   c0.042,0.049,0.085,0.098,0.13,0.143c0.021,0.027,0.036,0.049,0.036,0.049l-0.003-0.024c0.7,0.673,1.673,1.055,2.708,0.946   c1.869-0.203,3.227-1.886,3.03-3.753C30.44,58.359,28.757,57.002,26.886,57.198z" fill="#241F20"/><path d="M46.024,62.576v-0.003c-2.559,0.585-4.374-1.977-5.56-3.41c-0.394-0.488-0.772-0.854-1.151-1.095   c-0.503-0.473-1.173-0.788-1.919-0.87c-1.87-0.196-3.556,1.161-3.753,3.035c-0.203,1.867,1.161,3.55,3.028,3.753   c1.059,0.108,2.059-0.285,2.759-0.985l0.006,0.003c0,0,0.006-0.01,0.013-0.016c0.029-0.033,0.055-0.066,0.084-0.1   c0.174-0.17,0.609-0.409,1.465,0.115c0.023,0.015,0.027,0.012,0.048,0.024c1.871,1.461,3.535,1.121,5.005,0.182   C47.122,62.395,46.024,62.576,46.024,62.576z" fill="#241F20"/></g></svg>